PathFileType	4	(X/Y/Z)	C:/Users/beibeiliu/ov580/test_trc/capture2\sequence.21_training_dense_left.trc
DataRate	CameraRate	NumFrames	NumMarkers	Units	OrigDataRate	OrigDataStartFrame	OrigNumFrames
120	120	12	19	mm	120	267	355
Frame#	Time	ThumbCMC			ThumbMCP			ThumbIP			ThumbTip			IndexMCP			IndexPIP			IndexTip			MiddleMCP			MiddlePIP			MiddleTip			RingMCP			RingPIP			RingTip			PinkyMCP			PinkyPIP			PinkyTip			BackHand1			BackHand2			BackHand3	
		X0	Y0	Z0	X1	Y1	Z1	X2	Y2	Z2	X3	Y3	Z3	X4	Y4	Z4	X5	Y5	Z5	X6	Y6	Z6	X7	Y7	Z7	X8	Y8	Z8	X9	Y9	Z9	X10	Y10	Z10	X11	Y11	Z11	X12	Y12	Z12	X13	Y13	Z13	X14	Y14	Z14	X15	Y15	Z15	X16	Y16	Z16	X17	Y17	Z17	X18	Y18	Z18	
266	2.21667	-150.989	68.9468	0.936956	-143.355	52.9536	-24.869	-131.008	48.5167	-47.9534	-128.782	47.2752	-72.525	-163.711	106.755	-56.8245	-156.896	108.98	-81.6966	-156.883	108.479	-106.649	-176.79	81.8478	-66.9043	-163.105	52.3229	-66.8864	-163.56	53.7401	-26.9431	-186.352	68.9306	-62.6043	-175.451	42.4888	-50.2996	-179.189	56.2981	-15.5717	-199.736	57.6889	-55.9518	-186.585	39.013	-35.8133	-187.892	57.8704	-10.8601	-208.167	93.947	-17.4462	-213.483	80.678	13.9107	-179.579	97.1307	6.28264	
267	2.225	-145.879	66.0917	2.71524	-135.014	49.384	-24.1396	-128.579	44.2244	-46.1732	-120.77	42.184	-71.7542	-154.079	106.151	-56.2014	-148.305	106.364	-85.435	-151.033	105.864	-111.527	-166.95	78.9541	-68.2817	-157.774	51.2031	-66.3915	-156.404	51.2303	-27.5404	-184.373	67.4817	-61.8701	-169.734	41.1294	-47.1643	-173.421	52.5074	-17.293	-194.977	60.3819	-54.8244	-182.335	39.9037	-37.0844	-183.94	55.843	-9.56417	-205.431	92.8633	-17.0798	-207.787	81.0869	15.4934	-174.324	94.9161	6.22978	
268	2.23333	-139.024	64.0023	5.14919	-132.61	47.3634	-22.9995	-118.868	41.4362	-49.2157	-115.929	37.7083	-67.8737	-142.751	103.686	-60.3057	-140.381	103.5	-80.996	-141.387	103.509	-111.269	-161.485	76.9497	-67.1265	-152.65	45.6324	-62.2671	-151.779	46.9183	-29.1268	-177.332	63.9705	-61.6065	-164.24	40.552	-47.7832	-166.769	50.8514	-18.6055	-192.036	55.8522	-55.7269	-176.639	39.0469	-36.9196	-178.986	58.9243	-9.84884	-197.3	92.8993	-16.2638	-198.97	82.2698	17.0414	-168.33	96.0738	3.09015	
269	2.24167	-128.509	59.6651	7.98691	-120.238	41.6528	-22.0723	-112.581	35.9454	-44.9119	-105.685	31.3263	-70.5738	-134.376	98.1153	-56.7145	-131.714	98.0893	-82.4728	-128.899	98.4254	-107.627	-154.474	75.5444	-64.2318	-145.514	44.6577	-65.7422	-145.981	43.5548	-28.293	-163.485	61.7481	-61.4397	-155.572	36.514	-43.9272	-161.978	52.222	-13.3528	-183.771	57.0033	-54.0064	-170.571	36.2686	-35.1578	-172.436	53.0614	-9.25937	-185.768	89.4357	-15.1324	-186.79	84.236	16.6846	-154.188	91.5124	7.82685	
270	2.25	-125.824	57.4013	7.04337	-113.693	37.435	-21.3981	-104.195	30.1474	-44.5505	-98.6543	25.4532	-64.9448	-125.236	95.6848	-57.4104	-123.942	93.4727	-82.3957	-121.158	93.9732	-106.09	-141.084	70.8647	-66.1688	-137.559	40.6699	-64.5211	-137.919	43.7324	-24.6295	-156.616	60.327	-60.1181	-152.659	32.6187	-46.7009	-151.454	50.9223	-13.0702	-175.852	56.2732	-52.7502	-162.476	35.3113	-37.1045	-164.794	55.1371	-5.88905	-176.518	89.0766	-15.3384	-179.614	80.7504	16.1758	-147.409	91.3084	7.23827	
271	2.25833	-116.228	54.9934	7.35342	-106.206	34.3655	-20.367	-97.0895	26.7191	-42.4675	-95.2858	23.968	-64.9009	-114.986	93.1188	-58.4869	-110.921	90.2836	-82.1991	-112.964	90.4497	-109.031	-135.211	67.6233	-65.9156	-127.022	39.2075	-63.6676	-129.327	38.022	-26.839	-150.242	59.8068	-57.5679	-141.44	32.6779	-43.9272	-146.057	46.3491	-13.4626	-165.78	54.2843	-51.2373	-156.264	33.1289	-30.7007	-157.589	56.8682	-7.84434	-169.375	88.4824	-17.2569	-171.073	81.5234	17.3548	-138.921	87.4706	5.53138	
272	2.26667	-108.708	52.1369	11.2093	-103.583	34.3233	-15.4551	-90.5988	26.3103	-44.2472	-86.2807	21.4935	-59.6863	-111.382	90.4031	-54.9102	-103.707	87.9801	-77.7036	-105.716	87.8475	-103.554	-127.811	67.2098	-64.4071	-124.117	35.5211	-58.5805	-122.17	37.433	-25.5932	-141.624	55.879	-58.1588	-134.974	31.7151	-45.6257	-136.127	46.0133	-13.0111	-161.254	54.4805	-51.2305	-150.183	31.975	-31.9281	-152.111	50.6173	-7.35136	-162.734	87.6275	-11.9891	-163.067	81.1897	20.3758	-130.818	85.7276	9.34214	
273	2.275	-100.857	52.657	10.7354	-96.0816	32.5611	-12.7192	-86.3815	26.2874	-39.9459	-79.4828	20.6698	-58.843	-97.5934	89.8309	-49.9761	-92.086	87.4455	-76.3464	-90.9485	86.9519	-102.813	-118.182	68.5877	-60.1861	-116.569	36.8594	-61.114	-114.547	36.9638	-23.1135	-136.015	55.237	-58.3782	-127.401	31.4196	-44.604	-130.146	46.9179	-10.4002	-151.84	55.4574	-49.7735	-143.441	31.2938	-29.9235	-140.189	49.5063	-5.48414	-153.252	88.3345	-10.5936	-156.174	80.6876	20.7791	-125.599	85.6366	9.36924	
274	2.28333	-96.0706	51.6142	13.6144	-85.3084	30.9261	-10.2507	-73.9609	23.7257	-37.073	-69.2095	18.966	-56.8297	-92.75	88.5498	-50.0598	-85.9983	86.8308	-74.6392	-84.443	85.8762	-102.189	-108.582	68.5904	-59.2288	-102.769	36.3419	-56.868	-106.679	36.7135	-21.0646	-128.054	56.2683	-56.1147	-122.464	30.3812	-42.1506	-124.066	44.7408	-10.455	-144.18	52.2368	-49.9618	-136.365	31.7105	-29.8221	-134.69	51.876	-2.67382	-141.022	87.6216	-10.8027	-146.488	81.5644	17.9963	-116.297	86.1132	14.0892	
275	2.29167	-85.0868	50.9246	16.1865	-77.5786	31.2203	-8.53234	-66.641	25.1328	-35.0363	-61.084	21.1536	-59.3491	-79.6898	89.4902	-46.6511	-72.933	86.3611	-74.8436	-73.0818	86.0269	-98.8395	-99.8773	66.6012	-57.5164	-94.6463	35.7349	-52.6218	-104.483	39.4737	-18.0341	-116.447	60.0421	-52.747	-114.123	30.7828	-39.427	-114.923	48.143	-7.35212	-133.071	56.3596	-47.5101	-125.517	33.5039	-29.861	-126.739	54.5579	-3.93876	-135.828	87.7509	-10.0372	-141.884	83.6555	19.4853	-105.921	86.0627	13.3384	
276	2.3	-82.3692	51.037	19.2096	-71.1749	32.2438	-7.7819	-62.8624	26.9748	-31.0549	-55.6412	24.3006	-55.3719	-69.6667	89.0665	-47.2618	-66.3279	87.3767	-67.2182	-64.8718	85.3717	-92.8774	-90.5304	67.9366	-56.2123	-88.6639	37.1146	-52.4736	-94.8806	40.3418	-14.6808	-111.157	59.459	-52.0039	-108.457	31.7381	-39.6567	-107.625	45.4764	-8.15085	-124.741	54.1818	-47.8647	-121.081	32.6096	-29.5833	-120.444	54.0651	-2.21296	-125.245	90.895	-7.3696	-132.548	83.371	21.1156	-97.9307	87.2062	17.3088	
277	2.30833	-75.0938	49.5131	21.8602	-68.082	34.0526	-7.12525	-57.3254	27.7846	-31.4341	-49.4447	24.3721	-53.2791	-62.8628	89.5007	-45.4256	-55.7775	87.3942	-68.6622	-53.4468	86.7039	-94.5955	-84.8327	70.8109	-52.513	-83.6669	39.613	-53.313	-89.977	42.6093	-13.1165	-100.538	61.8598	-51.2889	-102.894	33.221	-39.8968	-99.6507	48.6075	-7.23562	-118.851	58.5743	-45.9956	-109.833	37.0634	-28.0821	-114.289	54.2043	0.113404	-121.132	90.8563	-6.60758	-126.025	83.4131	24.3086	-93.0667	86.4607	15.2359	
